<svg width="883" height="883" viewBox="0 0 883 883" fill="none" xmlns="http://www.w3.org/2000/svg">
<path fill-rule="evenodd" clip-rule="evenodd" d="M883 0H0V883H883V0ZM187.108 386.482L193.202 369.533L191.563 368.97C189.788 372.315 187.774 374.824 185.521 376.497C182.995 378.34 180.025 379.262 176.611 379.262C174.905 379.262 173.112 379.04 171.235 378.596C166.627 377.504 162.957 374.619 160.226 369.943C157.87 365.881 156.693 361.494 156.693 356.783C156.693 351.799 157.888 347.703 160.277 344.494C163.008 340.841 166.9 339.015 171.952 339.015C174.888 339.015 177.789 340.125 180.657 342.343C182.944 344.118 184.958 346.371 186.699 349.102C188.201 351.458 188.952 353.233 188.952 354.428L190.488 353.608L186.392 332C185.709 332.58 185.231 332.956 184.958 333.126C184.719 333.297 184.446 333.434 184.139 333.536C183.456 333.775 182.671 333.895 181.783 333.895C181.066 333.895 178.455 333.519 173.949 332.768C171.901 332.427 170.143 332.256 168.675 332.256C159.833 332.256 152.835 334.56 147.681 339.169C142.56 343.743 140 349.99 140 357.91C140 364.839 141.946 370.66 145.837 375.37C149.729 380.081 155.413 383.393 162.889 385.304C164.186 385.611 165.449 385.816 166.678 385.919C167.941 386.055 169.443 386.123 171.184 386.123C172.925 386.123 174.99 386.021 177.38 385.816C179.769 385.646 182.295 385.441 184.958 385.202C185.299 385.202 185.572 385.253 185.777 385.355C186.016 385.492 186.238 385.646 186.443 385.816L187.108 386.482ZM253.139 335.892C253.583 335.823 254.044 335.738 254.522 335.636V333.639H229.841V335.636C230.456 335.738 230.916 335.823 231.224 335.892C232.077 336.131 232.657 336.455 232.965 336.864C233.408 337.479 233.716 338.145 233.886 338.861C234.091 339.578 234.194 340.858 234.194 342.702V347.413H218.883V342.548C218.883 340.193 219.412 338.315 220.471 336.916C220.846 336.438 221.358 336.113 222.007 335.943C222.655 335.738 223.184 335.636 223.594 335.636V333.639H198.913V335.636C199.699 335.738 200.347 335.909 200.859 336.148C201.371 336.352 201.832 336.745 202.242 337.325C202.651 337.871 202.907 338.418 203.01 338.964C203.112 339.51 203.163 340.346 203.163 341.473V342.19L203.266 375.678C203.266 376.804 203.095 377.999 202.754 379.262C202.412 380.491 202.071 381.259 201.73 381.566C201.081 382.112 200.62 382.454 200.347 382.59C200.108 382.693 199.647 382.812 198.965 382.949V384.895H223.441V382.949C222.041 382.949 220.88 382.42 219.959 381.361C219.481 380.781 219.173 380.218 219.037 379.672C218.934 379.125 218.883 378.375 218.883 377.419V352.636H234.091V377.521C234.091 378.34 234.006 379.074 233.835 379.723C233.699 380.337 233.425 380.901 233.016 381.413C232.162 382.437 231.019 382.949 229.585 382.949V384.895H254.419V382.949C253.122 382.949 252.098 382.573 251.347 381.822C250.972 381.413 250.681 380.798 250.477 379.979C250.306 379.125 250.221 378.204 250.221 377.214L250.118 342.395C250.118 341.268 250.187 340.295 250.323 339.476C250.494 338.657 250.818 337.906 251.296 337.223C251.774 336.54 252.388 336.096 253.139 335.892ZM318.407 384.946H291.883V382.949C292.77 382.778 293.436 382.573 293.88 382.334C295.245 381.515 295.928 380.184 295.928 378.34C295.928 377.726 295.894 377.248 295.826 376.907C295.587 375.302 294.58 373.51 292.805 371.53C290.893 369.38 288.759 367.775 286.404 366.717C285.482 366.307 284.117 365.949 282.308 365.642C280.532 365.3 279.065 365.13 277.904 365.13L274.268 375.524C273.825 376.753 273.603 378.101 273.603 379.569C273.603 380.286 273.688 380.781 273.859 381.054C274.268 381.669 274.729 382.13 275.241 382.437C275.753 382.71 276.334 382.898 276.982 383V384.895H259.982V382.949C260.665 382.744 261.177 382.539 261.518 382.334C261.86 382.095 262.372 381.686 263.055 381.105C263.942 380.389 264.608 379.723 265.052 379.108C265.495 378.46 265.922 377.572 266.332 376.446L280.515 340.039C280.686 339.63 280.84 339.22 280.976 338.81C281.113 338.401 281.181 338.025 281.181 337.684C281.181 337.206 281.062 336.813 280.823 336.506C280.618 336.165 280.396 335.943 280.157 335.84C279.952 335.738 279.73 335.653 279.491 335.584V333.639H302.175V335.892C301.356 335.892 300.792 336.182 300.485 336.762C300.349 337.035 300.28 337.308 300.28 337.581C300.28 337.854 300.332 338.162 300.434 338.503C300.468 338.571 300.588 338.913 300.792 339.527L314.106 379.518C314.261 379.784 314.394 380.014 314.506 380.208C314.567 380.313 314.621 380.407 314.669 380.491C315.113 381.208 315.539 381.72 315.949 382.027C316.359 382.3 316.734 382.505 317.076 382.642C317.417 382.744 317.861 382.846 318.407 382.949V384.946ZM291.115 362.313L285.38 344.187L280.464 358.575C280.874 358.575 281.386 358.592 282 358.626C282.615 358.661 283.519 358.848 284.714 359.19C285.909 359.531 287.206 360.06 288.606 360.777C289.63 361.323 290.466 361.835 291.115 362.313ZM374.144 341.678C374.11 341.166 374.059 340.807 373.99 340.602C373.376 337.598 371.447 335.567 368.204 334.509C366.429 333.929 364.005 333.639 360.933 333.639H324.373V335.636C325.056 335.636 325.619 335.789 326.063 336.096C326.541 336.404 326.984 336.916 327.394 337.633C327.974 338.588 328.35 340.09 328.521 342.139C328.521 342.48 328.538 342.941 328.572 343.521V377.009C328.572 378.17 328.486 379.057 328.316 379.672C328.145 380.286 327.753 380.918 327.138 381.566C326.763 381.976 326.353 382.283 325.909 382.488C325.499 382.659 324.97 382.812 324.322 382.949V384.895H348.9V382.949C347.739 382.676 347.125 382.522 347.057 382.488C346.476 382.249 345.913 381.805 345.367 381.157C344.855 380.474 344.548 379.791 344.445 379.108C344.377 378.392 344.343 377.487 344.343 376.395L344.292 361.494L346.545 360.931C352.177 359.463 356.478 358.183 359.448 357.09C364.057 355.418 367.556 353.574 369.945 351.56C372.813 349.137 374.246 346.337 374.246 343.163C374.246 342.685 374.212 342.19 374.144 341.678ZM355.403 340.09C357.008 341.149 357.81 342.582 357.81 344.392C357.81 347.054 356.427 349.529 353.662 351.816C351.273 353.796 348.781 354.957 346.186 355.298L344.548 355.503V343.111C344.548 342.258 344.667 341.507 344.906 340.858C345.179 340.176 345.64 339.698 346.289 339.425C347.347 338.947 348.644 338.708 350.18 338.708C352.263 338.708 354.003 339.169 355.403 340.09ZM428.436 350.075L426.9 350.536C426.32 348.488 425.313 346.61 423.879 344.904C422.275 342.992 420.534 341.592 418.656 340.705C416.813 339.783 414.662 339.322 412.204 339.322L412.255 374.244V375.268C412.255 376.463 412.341 377.538 412.512 378.494C412.716 379.45 413.109 380.303 413.689 381.054C414.304 381.805 414.969 382.317 415.686 382.59C416.403 382.829 417.308 382.949 418.4 382.949V384.946H390.34V382.949C390.511 382.983 390.75 383 391.057 383C392.388 383 393.651 382.437 394.846 381.31C395.563 380.628 395.989 379.928 396.126 379.211C396.263 378.494 396.331 377.402 396.331 375.934V339.322C394.283 339.322 392.525 339.612 391.057 340.193C389.589 340.739 388.001 341.695 386.295 343.06C385.441 343.777 384.588 344.818 383.734 346.184C382.71 347.822 382.045 349.222 381.737 350.383L380.201 350.075L383.888 332.358C384.332 332.768 384.895 333.126 385.578 333.434C385.851 333.536 386.226 333.604 386.704 333.639C387.216 333.673 387.507 333.69 387.575 333.69C388.462 333.656 388.957 333.639 389.06 333.639H419.783H421.165C421.575 333.604 422.138 333.502 422.855 333.331C423.606 333.126 424.323 332.836 425.005 332.461L428.436 350.075ZM477.095 385.867L483.752 366.256L482.011 365.386C481.43 367.639 480.065 369.977 477.914 372.401C476.003 374.585 474.006 376.275 471.923 377.47C470.524 378.255 468.971 378.887 467.264 379.364C465.591 379.842 463.953 380.081 462.348 380.081C460.88 380.081 459.583 379.876 458.457 379.467C457.33 379.023 456.46 378.375 455.845 377.521C455.231 376.668 454.838 375.848 454.667 375.063C454.497 374.278 454.411 373.322 454.411 372.196V371.376V370.148V355.503H460.966C461.717 355.503 462.638 355.742 463.731 356.22C464.823 356.664 465.796 357.261 466.649 358.012C467.503 358.763 468.271 359.787 468.953 361.084C469.5 362.143 469.841 363.013 469.978 363.696L471.923 363.389L468.493 343.88L466.957 344.34C466.991 344.511 467.008 344.767 467.008 345.108C467.008 346.576 466.427 347.822 465.267 348.846C464.686 349.324 464.072 349.666 463.423 349.87C462.809 350.041 462.16 350.126 461.478 350.126H454.258V344.545C454.258 343.487 454.394 342.565 454.667 341.78C454.975 340.995 455.487 340.329 456.203 339.783C457.296 338.964 458.986 338.554 461.273 338.554C463.321 338.554 465.403 338.896 467.52 339.578C469.636 340.261 471.463 341.268 472.999 342.599C475.661 344.955 477.385 347.822 478.17 351.202L479.86 349.922L476.122 332.614C475.542 332.853 475.081 333.007 474.74 333.075C474.671 333.075 474.211 333.144 473.357 333.28C471.719 333.553 470.268 333.69 469.005 333.69C468.561 333.69 468.254 333.673 468.083 333.639H434.288V335.636C435.039 335.636 435.619 335.704 436.029 335.84C436.438 335.943 436.848 336.233 437.258 336.711C437.667 337.155 437.906 337.615 437.975 338.093C438.077 338.537 438.128 339.203 438.128 340.09V340.654V377.009C438.128 378.067 438.043 378.938 437.872 379.62C437.736 380.269 437.394 380.918 436.848 381.566C436.438 382.01 436.08 382.317 435.773 382.488C435.5 382.625 434.851 382.778 433.827 382.949V384.895H471.155C471.94 384.895 472.691 384.929 473.408 384.997C474.125 385.065 474.774 385.185 475.354 385.355L477.095 385.867ZM545.717 384.946H519.909V383.102C520.831 383 521.667 382.727 522.418 382.283C522.828 382.044 523.033 381.583 523.033 380.901C523.033 379.979 522.657 378.682 521.906 377.009C521.394 375.883 519.978 373.237 517.656 369.072C516.974 367.878 516.103 366.563 515.045 365.13C514.021 363.696 512.997 362.279 511.973 360.88L509.259 362.16V376.599C509.259 377.692 509.327 378.596 509.464 379.313C509.634 379.996 509.924 380.593 510.334 381.105C510.88 381.788 511.409 382.249 511.921 382.488C512.16 382.59 512.758 382.744 513.714 382.949V384.895H489.289V382.949C489.869 382.949 490.33 382.881 490.671 382.744C491.047 382.573 491.491 382.283 492.003 381.873C492.685 381.327 493.129 380.696 493.334 379.979C493.539 379.262 493.641 378.323 493.641 377.163L493.744 343.624C493.744 342.565 493.727 341.746 493.693 341.166C493.556 339.356 493.283 338.11 492.873 337.428C492.498 336.745 492.054 336.284 491.542 336.045C491.03 335.772 490.415 335.636 489.699 335.636V333.639H525.542C529.536 333.639 532.574 334.253 534.656 335.482C536.773 336.711 537.985 338.486 538.292 340.807C538.36 341.422 538.394 341.865 538.394 342.139C538.394 344.665 537.421 347.037 535.476 349.256C534.076 350.826 532.25 352.277 529.997 353.608C528.29 354.598 527.3 355.093 527.027 355.093C528.836 357.381 530.406 359.514 531.738 361.494C533.103 363.44 534.52 365.642 535.988 368.099C536.773 369.431 538.087 372.384 539.93 376.958C541.296 380.303 542.422 382.164 543.31 382.539C543.959 382.812 544.761 383.034 545.717 383.205V384.946ZM521.906 344.648C521.906 342.872 521.172 341.473 519.705 340.449C518.442 339.561 516.837 339.117 514.891 339.117C513.56 339.117 512.314 339.356 511.153 339.834C510.505 340.107 510.044 340.568 509.771 341.217C509.532 341.831 509.412 342.565 509.412 343.419V356.271L511.205 355.708C513.799 354.82 516.086 353.523 518.066 351.816C520.626 349.597 521.906 347.208 521.906 344.648ZM624.752 378.699C629.599 373.954 632.023 367.621 632.023 359.702C632.023 350.451 629.07 343.419 623.164 338.605C618.01 334.407 611.319 332.307 603.092 332.307C595.377 332.307 588.84 334.833 583.481 339.886C577.985 345.074 575.237 351.543 575.237 359.292C575.237 367.007 577.865 373.425 583.122 378.545C588.379 383.632 595.258 386.175 603.758 386.175C612.667 386.175 619.665 383.683 624.752 378.699ZM612.053 345.723C614.067 349.649 615.074 354.018 615.074 358.831C615.074 364.464 614.323 369.089 612.821 372.708C610.944 377.248 608.025 379.518 604.065 379.518C600.617 379.518 597.716 377.146 595.36 372.401C593.278 368.202 592.237 363.61 592.237 358.626C592.237 353.745 593.312 349.256 595.463 345.16C597.647 341.029 600.225 338.964 603.195 338.964C606.779 338.964 609.732 341.217 612.053 345.723ZM687.881 335.636L686.652 335.84C686.037 336.011 685.474 336.421 684.962 337.069C684.348 337.854 683.955 338.827 683.784 339.988C683.648 341.114 683.58 342.156 683.58 343.111V377.214C683.58 377.76 683.631 378.409 683.733 379.16C683.836 379.876 684.04 380.508 684.348 381.054C684.689 381.6 685.15 382.044 685.73 382.386C686.345 382.693 687.01 382.881 687.727 382.949V384.946H672.263V382.949C672.707 382.949 673.151 382.881 673.595 382.744C675.267 382.198 676.104 380.798 676.104 378.545C676.104 377.043 675.745 375.626 675.028 374.295C674.55 373.374 673.629 372.11 672.263 370.506L648.709 342.855L648.658 377.163C648.658 378.016 648.709 378.75 648.812 379.364C648.948 379.945 649.153 380.508 649.426 381.054C649.733 381.6 650.143 382.027 650.655 382.334C651.167 382.607 651.833 382.812 652.652 382.949V384.946H637.751V382.949C638.4 382.881 638.844 382.829 639.083 382.795C639.322 382.727 639.646 382.573 640.055 382.334C640.772 381.891 641.284 380.986 641.592 379.62C641.899 378.221 642.052 376.651 642.052 374.91V343.521V342.241C642.052 341.149 641.984 340.107 641.848 339.117C641.711 338.128 641.472 337.445 641.131 337.069C640.414 336.284 639.424 335.806 638.161 335.636V333.639H667.45V335.636C667.109 335.636 666.801 335.738 666.528 335.943C666.289 336.113 666.05 336.369 665.812 336.711C665.573 337.018 665.453 337.342 665.453 337.684C665.453 338.162 665.607 338.691 665.914 339.271C666.05 339.544 666.289 339.903 666.631 340.346L676.923 353.25L676.872 341.678V341.063C676.872 340.142 676.821 339.442 676.718 338.964C676.616 338.486 676.36 337.974 675.95 337.428C675.54 336.847 675.045 336.438 674.465 336.199C673.919 335.926 673.236 335.738 672.417 335.636V333.639H687.881V335.636ZM736.571 385.867L743.227 366.256L741.487 365.386C740.906 367.639 739.541 369.977 737.39 372.401C735.479 374.585 733.482 376.275 731.399 377.47C730 378.255 728.446 378.887 726.74 379.364C725.067 379.842 723.428 380.081 721.824 380.081C720.356 380.081 719.059 379.876 717.932 379.467C716.806 379.023 715.935 378.375 715.321 377.521C714.706 376.668 714.314 375.848 714.143 375.063C713.972 374.278 713.887 373.322 713.887 372.196V371.376V370.148V355.503H720.441C721.192 355.503 722.114 355.742 723.206 356.22C724.299 356.664 725.272 357.261 726.125 358.012C726.978 358.763 727.747 359.787 728.429 361.084C728.975 362.143 729.317 363.013 729.453 363.696L731.399 363.389L727.968 343.88L726.432 344.34C726.466 344.511 726.483 344.767 726.483 345.108C726.483 346.576 725.903 347.822 724.742 348.846C724.162 349.324 723.548 349.666 722.899 349.87C722.285 350.041 721.636 350.126 720.953 350.126H713.733V344.545C713.733 343.487 713.87 342.565 714.143 341.78C714.45 340.995 714.962 340.329 715.679 339.783C716.772 338.964 718.461 338.554 720.749 338.554C722.797 338.554 724.879 338.896 726.996 339.578C729.112 340.261 730.938 341.268 732.474 342.599C735.137 344.955 736.861 347.822 737.646 351.202L739.336 349.922L735.598 332.614C735.018 332.853 734.557 333.007 734.215 333.075C734.147 333.075 733.686 333.144 732.833 333.28C731.194 333.553 729.744 333.69 728.48 333.69C728.037 333.69 727.729 333.673 727.559 333.639H693.764V335.636C694.515 335.636 695.095 335.704 695.505 335.84C695.914 335.943 696.324 336.233 696.733 336.711C697.143 337.155 697.382 337.615 697.45 338.093C697.553 338.537 697.604 339.203 697.604 340.09V340.654V377.009C697.604 378.067 697.519 378.938 697.348 379.62C697.211 380.269 696.87 380.918 696.324 381.566C695.914 382.01 695.556 382.317 695.249 382.488C694.975 382.625 694.327 382.778 693.303 382.949V384.895H730.631C731.416 384.895 732.167 384.929 732.884 384.997C733.601 385.065 734.25 385.185 734.83 385.355L736.571 385.867ZM746 404.895H138V412.895H746V404.895ZM437.106 526.355C437.106 530.52 435.57 534.087 432.498 537.057C429.971 539.481 426.626 541.359 422.461 542.69C419.048 543.782 415.788 544.328 412.681 544.328C410.189 544.328 407.39 544.124 404.284 543.714C401.177 543.304 398.003 542.895 394.76 542.485C394.316 542.485 393.94 542.519 393.633 542.587C393.36 542.622 393.019 542.758 392.609 542.997L391.482 543.816L389.486 522.618L391.329 522.413C391.431 523.437 391.858 524.836 392.609 526.612C393.565 528.899 394.674 530.708 395.937 532.039C397.747 533.951 399.88 535.419 402.338 536.443C404.83 537.467 407.254 537.979 409.609 537.979C412.203 537.979 414.422 537.416 416.266 536.289C418.109 535.163 419.236 533.575 419.645 531.527C419.713 531.22 419.748 530.793 419.748 530.247C419.748 528.984 419.372 527.892 418.621 526.97C417.904 526.014 416.931 525.331 415.702 524.922L402.184 520.467C398.941 519.409 396.415 517.838 394.606 515.756C392.626 513.469 391.636 510.704 391.636 507.461C391.636 502.989 393.377 499.2 396.859 496.093C399.965 493.328 404.045 491.434 409.097 490.41C410.326 490.171 411.623 490.051 412.988 490.051C414.764 490.051 416.743 490.273 418.928 490.717C421.113 491.161 423.366 491.604 425.687 492.048C425.96 492.048 426.148 492.031 426.251 491.997C427.002 491.792 427.787 491.485 428.606 491.075C429.22 490.7 429.698 490.427 430.04 490.256L431.781 506.898L429.937 507.461C429.835 506.949 429.494 506.164 428.913 505.105C427.548 502.545 426.063 500.719 424.458 499.627C423.161 498.739 421.676 498.022 420.004 497.476C418.331 496.93 416.726 496.657 415.19 496.657C413.859 496.657 412.698 496.879 411.708 497.322C410.718 497.732 409.984 498.381 409.507 499.268C409.199 499.814 408.977 500.292 408.841 500.702C408.602 501.385 408.482 502.101 408.482 502.852C408.482 503.979 408.892 504.986 409.711 505.874C410.736 506.966 412.323 507.853 414.473 508.536L426.763 512.479C430.006 513.537 432.532 515.244 434.341 517.599C436.184 519.955 437.106 522.874 437.106 526.355ZM88.2259 493.892C88.6697 493.823 89.1305 493.738 89.6084 493.636V491.639H64.9277V493.636C65.5422 493.738 66.003 493.823 66.3102 493.892C67.1637 494.131 67.744 494.455 68.0512 494.865C68.495 495.479 68.8022 496.145 68.9729 496.862C69.1777 497.578 69.2801 498.859 69.2801 500.702V505.413H53.9699V500.548C53.9699 498.193 54.499 496.315 55.5572 494.916C55.9327 494.438 56.4448 494.114 57.0934 493.943C57.742 493.738 58.2711 493.636 58.6807 493.636V491.639H34V493.636C34.7851 493.738 35.4337 493.909 35.9458 494.148C36.4578 494.352 36.9187 494.745 37.3283 495.325C37.738 495.872 37.994 496.418 38.0964 496.964C38.1988 497.51 38.25 498.346 38.25 499.473V500.19L38.3524 533.678C38.3524 534.804 38.1817 535.999 37.8404 537.262C37.499 538.491 37.1576 539.259 36.8163 539.566C36.1677 540.113 35.7068 540.454 35.4337 540.59C35.1948 540.693 34.7339 540.812 34.0512 540.949V542.895H58.5271V540.949C57.1275 540.949 55.9669 540.42 55.0452 539.362C54.5673 538.781 54.26 538.218 54.1235 537.672C54.0211 537.126 53.9699 536.375 53.9699 535.419V510.636H69.1777V535.521C69.1777 536.34 69.0924 537.074 68.9217 537.723C68.7851 538.337 68.512 538.901 68.1024 539.413C67.249 540.437 66.1054 540.949 64.6717 540.949V542.895H89.506V540.949C88.2088 540.949 87.1847 540.573 86.4337 539.822C86.0582 539.413 85.7681 538.798 85.5632 537.979C85.3926 537.126 85.3072 536.204 85.3072 535.214L85.2048 500.395C85.2048 499.268 85.2731 498.295 85.4096 497.476C85.5803 496.657 85.9046 495.906 86.3825 495.223C86.8604 494.54 87.4749 494.096 88.2259 493.892ZM126.969 542.946H153.494V540.949C152.947 540.846 152.504 540.744 152.162 540.642C151.821 540.505 151.445 540.3 151.036 540.027C150.626 539.72 150.199 539.208 149.756 538.491C149.619 538.252 149.431 537.928 149.192 537.518L135.879 497.527C135.674 496.913 135.555 496.571 135.521 496.503C135.418 496.162 135.367 495.854 135.367 495.581C135.367 495.308 135.435 495.035 135.572 494.762C135.879 494.182 136.442 493.892 137.262 493.892V491.639H114.578V493.584C114.817 493.653 115.039 493.738 115.244 493.84C115.482 493.943 115.704 494.165 115.909 494.506C116.148 494.813 116.268 495.206 116.268 495.684C116.268 496.025 116.199 496.401 116.063 496.81C115.926 497.22 115.773 497.63 115.602 498.039L101.418 534.446C101.009 535.572 100.582 536.46 100.138 537.109C99.6943 537.723 99.0287 538.389 98.1411 539.105C97.4584 539.686 96.9463 540.095 96.605 540.334C96.2636 540.539 95.7516 540.744 95.0688 540.949V542.895H112.069V541C111.42 540.898 110.84 540.71 110.328 540.437C109.816 540.13 109.355 539.669 108.945 539.054C108.775 538.781 108.689 538.286 108.689 537.569C108.689 536.101 108.911 534.753 109.355 533.524L112.991 523.13C114.151 523.13 115.619 523.3 117.394 523.642C119.203 523.949 120.569 524.307 121.491 524.717C123.846 525.775 125.979 527.38 127.891 529.53C129.666 531.51 130.673 533.302 130.912 534.907C130.98 535.248 131.015 535.726 131.015 536.34C131.015 538.184 130.332 539.515 128.966 540.334C128.523 540.573 127.857 540.778 126.969 540.949V542.946ZM120.466 502.187L126.201 520.313C125.553 519.835 124.716 519.323 123.692 518.777C122.293 518.06 120.996 517.531 119.801 517.19C118.606 516.848 117.701 516.661 117.087 516.627C116.472 516.592 115.96 516.575 115.551 516.575L120.466 502.187ZM232.99 494.199C232.239 494.37 231.573 494.609 230.993 494.916C230.447 495.223 229.986 495.65 229.61 496.196C229.235 496.742 228.927 497.322 228.688 497.937C228.45 498.517 228.262 499.115 228.125 499.729L220.444 535.368C220.376 535.641 220.291 536.101 220.188 536.75C220.086 537.399 220.035 537.842 220.035 538.081C220.035 538.73 220.188 539.362 220.496 539.976C220.666 540.317 220.939 540.573 221.315 540.744C221.69 540.881 222.083 540.949 222.493 540.949V542.895H197.556V540.949C198.546 540.949 199.229 540.539 199.604 539.72C199.775 539.379 199.86 539.003 199.86 538.593C199.86 538.354 199.792 537.859 199.655 537.109L195.354 511.404L190.848 535.316L190.49 537.467C190.387 538.081 190.336 538.559 190.336 538.901C190.336 539.618 190.473 540.147 190.746 540.488C191.019 540.795 191.497 540.949 192.179 540.949V542.895H169.24V540.949C170.127 540.949 170.793 540.522 171.237 539.669C171.407 539.259 171.493 538.713 171.493 538.03C171.493 537.279 171.441 536.562 171.339 535.88C171.237 535.163 171.168 534.702 171.134 534.497L165.092 500.241C164.921 499.49 164.768 498.91 164.631 498.5C164.222 497.203 163.744 496.264 163.198 495.684C162.685 495.069 162.156 494.626 161.61 494.352C161.098 494.079 160.381 493.84 159.46 493.636V491.639H185.267V493.636C184.516 493.636 183.85 493.789 183.27 494.096C182.724 494.37 182.177 494.83 181.631 495.479C181.324 495.82 181.085 496.298 180.914 496.913C180.778 497.527 180.71 498.125 180.71 498.705C180.71 499.149 180.727 499.524 180.761 499.831L180.863 500.651L185.984 534.241L192.231 501.009C192.333 500.361 192.435 499.695 192.538 499.012C192.64 498.295 192.691 497.681 192.691 497.169C192.691 496.349 192.555 495.718 192.282 495.274C191.599 494.182 190.626 493.636 189.363 493.636V491.639H211.944V493.636C211.398 493.704 210.886 493.909 210.408 494.25C210.067 494.489 209.709 494.865 209.333 495.377C209.094 495.718 208.906 496.111 208.77 496.554C208.667 496.998 208.616 497.459 208.616 497.937C208.616 498.381 208.633 498.773 208.667 499.115C208.702 499.422 208.753 499.729 208.821 500.036L213.993 535.368L221.161 499.575C221.332 498.722 221.417 497.988 221.417 497.374C221.417 496.52 221.213 495.82 220.803 495.274C220.291 494.591 219.506 494.165 218.448 493.994V491.639H232.99V494.199ZM269.811 542.895H297.205V540.949H295.823C295.55 540.949 295.208 540.932 294.799 540.898C294.423 540.829 294.048 540.71 293.672 540.539C292.614 540.027 291.385 538.081 289.985 534.702C285.821 524.666 283.619 519.46 283.38 519.084C281.571 516.251 279.932 513.793 278.464 511.711C276.826 509.39 275.016 507.051 273.036 504.696L274.317 503.518C276.365 501.607 277.969 500.207 279.13 499.319C281.519 497.476 283.875 496.093 286.196 495.172C287.937 494.489 289.712 493.977 291.521 493.636V491.639H269.145V493.636C269.862 493.738 270.51 493.943 271.091 494.25C271.705 494.523 272.132 494.847 272.371 495.223C272.644 495.598 272.78 495.991 272.78 496.401C272.78 497.254 272.286 498.278 271.296 499.473C270.34 500.668 269.264 501.726 268.07 502.648L259.109 510.328L259.211 500.651C259.211 499.319 259.262 498.278 259.365 497.527C259.501 496.742 259.826 496.008 260.338 495.325C260.679 494.847 261.038 494.506 261.413 494.301C261.789 494.062 262.505 493.84 263.564 493.636V491.639H238.883V493.636C239.258 493.636 239.788 493.738 240.47 493.943C241.153 494.148 241.665 494.506 242.006 495.018C242.382 495.496 242.621 496.042 242.723 496.657C242.86 497.271 242.928 498.022 242.928 498.91V500.497V533.575C242.928 533.712 242.945 534.19 242.979 535.009C242.979 535.965 242.86 536.921 242.621 537.877C242.382 538.798 241.955 539.498 241.341 539.976C240.556 540.625 239.702 540.949 238.78 540.949V542.895H263.871V540.949C263.222 540.949 262.659 540.881 262.181 540.744C261.703 540.573 261.259 540.317 260.85 539.976C260.235 539.498 259.809 538.884 259.57 538.133C259.365 537.382 259.262 536.494 259.262 535.47V517.395L262.079 514.783L267.25 522.157C268.65 524.137 269.998 526.885 271.296 530.401C272.627 533.917 273.293 536.614 273.293 538.491C273.293 539.14 273.19 539.618 272.985 539.925C272.542 540.505 271.944 540.846 271.193 540.949H269.811V542.895ZM327.79 493.636C326.731 493.84 326.014 494.062 325.639 494.301C325.263 494.506 324.905 494.847 324.564 495.325C324.086 495.974 323.779 496.708 323.642 497.527C323.54 498.312 323.488 499.336 323.488 500.599V535.06C323.488 536.05 323.574 536.972 323.744 537.825C323.949 538.645 324.239 539.242 324.615 539.618C324.99 539.993 325.434 540.317 325.946 540.59C326.458 540.829 327.039 540.949 327.687 540.949V542.895H302.853V540.949C304.218 540.949 305.362 540.386 306.284 539.259C306.727 538.747 307.017 538.184 307.154 537.569C307.325 536.955 307.41 536.221 307.41 535.368V500.753C307.41 499.285 307.342 498.125 307.205 497.271C307.069 496.418 306.744 495.65 306.232 494.967C305.959 494.591 305.567 494.318 305.055 494.148C304.543 493.943 303.809 493.772 302.853 493.636V491.639H327.79V493.636ZM382.323 493.84L383.551 493.636V491.639H368.088V493.636C368.907 493.738 369.59 493.926 370.136 494.199C370.716 494.438 371.211 494.847 371.621 495.428C372.03 495.974 372.286 496.486 372.389 496.964C372.491 497.442 372.542 498.142 372.542 499.063V499.678L372.594 511.25L362.301 498.346C361.96 497.903 361.721 497.544 361.585 497.271C361.277 496.691 361.124 496.162 361.124 495.684C361.124 495.342 361.243 495.018 361.482 494.711C361.721 494.37 361.96 494.114 362.199 493.943C362.472 493.738 362.779 493.636 363.121 493.636V491.639H333.832V493.636C335.095 493.806 336.085 494.284 336.801 495.069C337.143 495.445 337.382 496.128 337.518 497.118C337.655 498.107 337.723 499.149 337.723 500.241V501.521V532.91C337.723 534.651 337.57 536.221 337.262 537.621C336.955 538.986 336.443 539.891 335.726 540.334C335.316 540.573 334.992 540.727 334.753 540.795C334.626 540.813 334.442 540.836 334.2 540.864C333.986 540.889 333.726 540.917 333.422 540.949V542.946H348.323V540.949C347.503 540.812 346.838 540.607 346.326 540.334C345.813 540.027 345.404 539.6 345.097 539.054C344.824 538.508 344.619 537.945 344.482 537.365C344.38 536.75 344.329 536.016 344.329 535.163L344.38 500.855L367.934 528.506C369.299 530.11 370.221 531.374 370.699 532.295C371.416 533.627 371.774 535.043 371.774 536.545C371.774 538.798 370.938 540.198 369.265 540.744C368.822 540.881 368.378 540.949 367.934 540.949V542.946H383.398V540.949C382.681 540.881 382.015 540.693 381.401 540.386C380.821 540.044 380.36 539.6 380.018 539.054C379.711 538.508 379.506 537.877 379.404 537.16C379.301 536.409 379.25 535.76 379.25 535.214V501.112C379.25 500.156 379.319 499.115 379.455 497.988C379.626 496.827 380.018 495.854 380.633 495.069C381.145 494.421 381.708 494.011 382.323 493.84ZM454.167 550.831L463.692 534.753H449.354C449.457 535.231 449.508 535.658 449.508 536.033V536.392C449.508 536.494 449.474 536.716 449.405 537.057C449.371 537.365 449.235 537.808 448.996 538.389C448.982 538.423 448.966 538.463 448.949 538.508L448.914 538.596L448.859 538.736L448.808 538.869L448.747 539.025L448.637 539.31L445.463 546.479C445.428 546.616 445.241 546.974 444.899 547.554C444.558 548.169 444.234 548.664 443.926 549.039C443.619 549.449 443.346 549.756 443.107 549.961C442.902 550.166 442.578 550.456 442.134 550.831H454.167ZM517.14 493.636C516.082 493.84 515.365 494.062 514.99 494.301C514.614 494.506 514.256 494.847 513.914 495.325C513.437 495.974 513.129 496.708 512.993 497.527C512.89 498.312 512.839 499.336 512.839 500.599V535.06C512.839 536.05 512.924 536.972 513.095 537.825C513.3 538.645 513.59 539.242 513.966 539.618C514.341 539.993 514.785 540.317 515.297 540.59C515.809 540.829 516.389 540.949 517.038 540.949V542.895H492.204V540.949C493.569 540.949 494.713 540.386 495.634 539.259C496.078 538.747 496.368 538.184 496.505 537.569C496.675 536.955 496.761 536.221 496.761 535.368V500.753C496.761 499.285 496.693 498.125 496.556 497.271C496.419 496.418 496.095 495.65 495.583 494.967C495.31 494.591 494.917 494.318 494.405 494.148C493.893 493.943 493.159 493.772 492.204 493.636V491.639H517.14V493.636ZM571.673 493.84L572.902 493.636V491.639H557.438V493.636C558.258 493.738 558.94 493.926 559.487 494.199C560.067 494.438 560.562 494.847 560.971 495.428C561.381 495.974 561.637 496.486 561.74 496.964C561.842 497.442 561.893 498.142 561.893 499.063V499.678L561.944 511.25L551.652 498.346C551.311 497.903 551.072 497.544 550.935 497.271C550.628 496.691 550.475 496.162 550.475 495.684C550.475 495.342 550.594 495.018 550.833 494.711C551.072 494.37 551.311 494.114 551.55 493.943C551.823 493.738 552.13 493.636 552.471 493.636V491.639H523.182V493.636C524.445 493.806 525.435 494.284 526.152 495.069C526.494 495.445 526.733 496.128 526.869 497.118C527.006 498.107 527.074 499.149 527.074 500.241V501.521V532.91C527.074 534.651 526.92 536.221 526.613 537.621C526.306 538.986 525.794 539.891 525.077 540.334C524.667 540.573 524.343 540.727 524.104 540.795C523.865 540.829 523.421 540.881 522.773 540.949V542.946H537.673V540.949C536.854 540.812 536.188 540.607 535.676 540.334C535.164 540.027 534.755 539.6 534.447 539.054C534.174 538.508 533.969 537.945 533.833 537.365C533.731 536.75 533.679 536.016 533.679 535.163L533.731 500.855L557.285 528.506C558.65 530.11 559.572 531.374 560.05 532.295C560.767 533.627 561.125 535.043 561.125 536.545C561.125 538.798 560.289 540.198 558.616 540.744C558.172 540.881 557.729 540.949 557.285 540.949V542.946H572.749V540.949C572.032 540.881 571.366 540.693 570.752 540.386C570.171 540.044 569.711 539.6 569.369 539.054C569.062 538.508 568.857 537.877 568.755 537.16C568.652 536.409 568.601 535.76 568.601 535.214V501.112C568.601 500.156 568.669 499.115 568.806 497.988C568.977 496.827 569.369 495.854 569.984 495.069C570.496 494.421 571.059 494.011 571.673 493.84ZM635.162 517.343C635.162 525.024 633.233 531.049 629.375 535.419C624.972 540.403 618.315 542.895 609.406 542.895H578.836V540.949C579.929 540.949 580.884 540.505 581.704 539.618C581.977 539.31 582.25 538.781 582.523 538.03C582.83 537.245 582.984 536.528 582.984 535.88V498.705C582.984 497.817 582.967 497.254 582.933 497.015C582.796 496.196 582.506 495.513 582.062 494.967C581.618 494.421 581.158 494.062 580.68 493.892C580.236 493.721 579.621 493.636 578.836 493.636V491.639H606.845C614.458 491.639 621.029 494.062 626.559 498.91C632.294 503.928 635.162 510.072 635.162 517.343ZM618.725 517.343C618.725 511.779 617.12 506.864 613.912 502.596C610.839 498.5 607.477 496.452 603.824 496.452C602.903 496.452 601.998 496.64 601.11 497.015C600.257 497.391 599.694 498.056 599.421 499.012C599.148 499.934 599.011 501.06 599.011 502.392V530.964C599.011 533.012 599.233 534.429 599.677 535.214C600.12 535.965 600.871 536.562 601.93 537.006C602.988 537.416 604.131 537.621 605.36 537.621C609.013 537.621 612.154 535.726 614.782 531.937C617.411 528.114 618.725 523.249 618.725 517.343ZM663.636 494.301C664.012 494.062 664.729 493.84 665.787 493.636V491.639H640.85V493.636C641.806 493.772 642.54 493.943 643.052 494.148C643.564 494.318 643.956 494.591 644.229 494.967C644.742 495.65 645.066 496.418 645.202 497.271C645.339 498.125 645.407 499.285 645.407 500.753V535.368C645.407 536.221 645.322 536.955 645.151 537.569C645.015 538.184 644.724 538.747 644.281 539.259C643.359 540.386 642.215 540.949 640.85 540.949V542.895H665.684V540.949C665.036 540.949 664.455 540.829 663.943 540.59C663.431 540.317 662.988 539.993 662.612 539.618C662.237 539.242 661.946 538.645 661.742 537.825C661.571 536.972 661.486 536.05 661.486 535.06V500.599C661.486 499.336 661.537 498.312 661.639 497.527C661.776 496.708 662.083 495.974 662.561 495.325C662.902 494.847 663.261 494.506 663.636 494.301ZM729.485 542.946H702.961V540.949C703.849 540.778 704.514 540.573 704.958 540.334C706.324 539.515 707.006 538.184 707.006 536.34C707.006 535.726 706.972 535.248 706.904 534.907C706.665 533.302 705.658 531.51 703.883 529.53C701.971 527.38 699.838 525.775 697.482 524.717C696.561 524.307 695.195 523.949 693.386 523.642C691.611 523.3 690.143 523.13 688.982 523.13L685.347 533.524C684.903 534.753 684.681 536.101 684.681 537.569C684.681 538.286 684.767 538.781 684.937 539.054C685.347 539.669 685.808 540.13 686.32 540.437C686.832 540.71 687.412 540.898 688.061 541V542.895H671.061V540.949C671.743 540.744 672.255 540.539 672.597 540.334C672.938 540.095 673.45 539.686 674.133 539.105C675.021 538.389 675.686 537.723 676.13 537.109C676.574 536.46 677 535.572 677.41 534.446L691.594 498.039C691.764 497.63 691.918 497.22 692.055 496.81C692.191 496.401 692.259 496.025 692.259 495.684C692.259 495.206 692.14 494.813 691.901 494.506C691.696 494.165 691.474 493.943 691.235 493.84C691.031 493.738 690.809 493.653 690.57 493.584V491.639H713.253V493.892C712.434 493.892 711.871 494.182 711.564 494.762C711.427 495.035 711.359 495.308 711.359 495.581C711.359 495.854 711.41 496.162 711.513 496.503C711.547 496.571 711.666 496.913 711.871 497.527L725.184 537.518C725.423 537.928 725.611 538.252 725.747 538.491C726.191 539.208 726.618 539.72 727.028 540.027C727.437 540.3 727.813 540.505 728.154 540.642C728.495 540.744 728.939 540.846 729.485 540.949V542.946ZM696.458 502.187L691.543 516.575C691.952 516.575 692.464 516.592 693.079 516.627C693.693 516.661 694.598 516.848 695.793 517.19C696.987 517.531 698.285 518.06 699.684 518.777C700.708 519.323 701.545 519.835 702.193 520.313L696.458 502.187ZM784.301 493.84L785.53 493.636V491.639H770.066V493.636C770.885 493.738 771.568 493.926 772.114 494.199C772.694 494.438 773.189 494.847 773.599 495.428C774.009 495.974 774.265 496.486 774.367 496.964C774.469 497.442 774.521 498.142 774.521 499.063V499.678L774.572 511.25L764.28 498.346C763.938 497.903 763.699 497.544 763.563 497.271C763.256 496.691 763.102 496.162 763.102 495.684C763.102 495.342 763.221 495.018 763.46 494.711C763.699 494.37 763.938 494.114 764.177 493.943C764.45 493.738 764.758 493.636 765.099 493.636V491.639H735.81V493.636C737.073 493.806 738.063 494.284 738.78 495.069C739.121 495.445 739.36 496.128 739.497 497.118C739.633 498.107 739.701 499.149 739.701 500.241V501.521V532.91C739.701 534.651 739.548 536.221 739.241 537.621C738.933 538.986 738.421 539.891 737.704 540.334C737.295 540.573 736.97 540.727 736.732 540.795C736.493 540.829 736.049 540.881 735.4 540.949V542.946H750.301V540.949C749.482 540.812 748.816 540.607 748.304 540.334C747.792 540.027 747.382 539.6 747.075 539.054C746.802 538.508 746.597 537.945 746.46 537.365C746.358 536.75 746.307 536.016 746.307 535.163L746.358 500.855L769.912 528.506C771.278 530.11 772.199 531.374 772.677 532.295C773.394 533.627 773.753 535.043 773.753 536.545C773.753 538.798 772.916 540.198 771.244 540.744C770.8 540.881 770.356 540.949 769.912 540.949V542.946H785.376V540.949C784.659 540.881 783.994 540.693 783.379 540.386C782.799 540.044 782.338 539.6 781.997 539.054C781.689 538.508 781.485 537.877 781.382 537.16C781.28 536.409 781.229 535.76 781.229 535.214V501.112C781.229 500.156 781.297 499.115 781.433 497.988C781.604 496.827 781.997 495.854 782.611 495.069C783.123 494.421 783.686 494.011 784.301 493.84ZM849.479 542.946H822.955V540.949C823.842 540.778 824.508 540.573 824.952 540.334C826.317 539.515 827 538.184 827 536.34C827 535.726 826.966 535.248 826.898 534.907C826.659 533.302 825.652 531.51 823.876 529.53C821.965 527.38 819.831 525.775 817.476 524.717C816.554 524.307 815.189 523.949 813.379 523.642C811.604 523.3 810.136 523.13 808.976 523.13L805.34 533.524C804.897 534.753 804.675 536.101 804.675 537.569C804.675 538.286 804.76 538.781 804.931 539.054C805.34 539.669 805.801 540.13 806.313 540.437C806.825 540.71 807.406 540.898 808.054 541V542.895H791.054V540.949C791.737 540.744 792.249 540.539 792.59 540.334C792.932 540.095 793.444 539.686 794.126 539.105C795.014 538.389 795.68 537.723 796.123 537.109C796.567 536.46 796.994 535.572 797.404 534.446L811.587 498.039C811.758 497.63 811.912 497.22 812.048 496.81C812.185 496.401 812.253 496.025 812.253 495.684C812.253 495.206 812.133 494.813 811.895 494.506C811.69 494.165 811.468 493.943 811.229 493.84C811.024 493.738 810.802 493.653 810.563 493.584V491.639H833.247V493.892C832.428 493.892 831.864 494.182 831.557 494.762C831.421 495.035 831.352 495.308 831.352 495.581C831.352 495.854 831.404 496.162 831.506 496.503C831.54 496.571 831.66 496.913 831.864 497.527L845.178 537.518C845.417 537.928 845.604 538.252 845.741 538.491C846.185 539.208 846.611 539.72 847.021 540.027C847.431 540.3 847.806 540.505 848.148 540.642C848.489 540.744 848.933 540.846 849.479 540.949V542.946ZM816.452 502.187L811.536 516.575C811.946 516.575 812.458 516.592 813.072 516.627C813.687 516.661 814.591 516.848 815.786 517.19C816.981 517.531 818.278 518.06 819.678 518.777C820.702 519.323 821.538 519.835 822.187 520.313L816.452 502.187Z" fill="url(#paint0_linear_140_8712)"/>
<defs>
<linearGradient id="paint0_linear_140_8712" x1="441.5" y1="0" x2="441.5" y2="333" gradientUnits="userSpaceOnUse">
<stop stop-color="#080808"/>
<stop offset="1" stop-color="#080808"/>
</linearGradient>
</defs>
</svg>
