<svg width="820" height="236" viewBox="0 0 820 236" fill="none" xmlns="http://www.w3.org/2000/svg">
<path fill-rule="evenodd" clip-rule="evenodd" d="M783.961 0H756.961V130H783.961V0Z" fill="#3057E1"/>
<path fill-rule="evenodd" clip-rule="evenodd" d="M783.961 0H756.961V130H783.961V0ZM759.961 3H762.961V127H759.961V3ZM765.961 3H768.961V127H765.961V3ZM774.961 3H771.961V127H774.961V3ZM777.961 3H780.961V127H777.961V3Z" fill="#6AEEDB"/>
<path fill-rule="evenodd" clip-rule="evenodd" d="M52.8803 9.96875L76.4325 38.2883H139.935L120.713 69.4579L139.952 129.927L104.359 121.07L52.4842 157.703L50.247 121.105L0 82.4774L33.0521 68.7638L52.8803 9.96875ZM61.9528 88.7243L76.925 100.234L92.5147 89.2718L86.7942 71.1241L67.6499 71.0846L61.9528 88.7243Z" fill="#3057E1"/>
<path d="M75.4949 40.2885H136.352L118.529 69.1897M75.4949 40.2885L66.4197 69.0822L118.529 69.1897M75.4949 40.2885L53.6319 14L34.6574 70.2634M75.4949 40.2885L59.6613 89.3129L34.6574 70.2634M118.529 69.1897L136.961 127.121L103.954 118.909M118.529 69.1897L88.3075 69.2715L103.954 118.909M72.2919 49.8864H130.433M69.0889 59.4843H124.514M103.954 118.909L54.2619 154L52.188 120.075M103.954 118.909L94.7229 90.1644L52.188 120.075M108.401 69.0475L126.186 124.947M98.2736 68.9054L115.412 122.772M52.188 120.075L3.96094 82.9996L34.6574 70.2634M52.188 120.075L76.9619 102.785L34.6574 70.2634M101.021 109.224L53.0727 143.085M98.0915 99.5407L51.8864 132.17M42.9056 76.5473L60.861 22.6924M51.4722 83.0739L68.3997 31.7571M60.5872 114.42L14.0523 78.6457M68.9867 108.765L24.144 74.2921" stroke="#6AEEDB" stroke-width="4"/>
<path fill-rule="evenodd" clip-rule="evenodd" d="M557.461 130C582.59 130 602.961 109.629 602.961 84.5C602.961 59.371 582.59 39 557.461 39C532.332 39 511.961 59.371 511.961 84.5C511.961 109.629 532.332 130 557.461 130ZM557.461 103C567.678 103 575.961 94.7173 575.961 84.5C575.961 74.2827 567.678 66 557.461 66C547.244 66 538.961 74.2827 538.961 84.5C538.961 94.7173 547.244 103 557.461 103Z" fill="#3057E1"/>
<path fill-rule="evenodd" clip-rule="evenodd" d="M557.461 130C582.59 130 602.961 109.629 602.961 84.5C602.961 59.371 582.59 39 557.461 39C532.332 39 511.961 59.371 511.961 84.5C511.961 109.629 532.332 130 557.461 130ZM557.461 127C580.933 127 599.961 107.972 599.961 84.5C599.961 61.0279 580.933 42 557.461 42C533.989 42 514.961 61.0279 514.961 84.5C514.961 107.972 533.989 127 557.461 127ZM557.461 124C579.276 124 596.961 106.315 596.961 84.5C596.961 62.6848 579.276 45 557.461 45C535.646 45 517.961 62.6848 517.961 84.5C517.961 106.315 535.646 124 557.461 124ZM557.461 121C577.619 121 593.961 104.658 593.961 84.5C593.961 64.3416 577.619 48 557.461 48C537.303 48 520.961 64.3416 520.961 84.5C520.961 104.658 537.303 121 557.461 121ZM590.961 84.5C590.961 103.002 575.962 118 557.461 118C538.959 118 523.961 103.002 523.961 84.5C523.961 65.9985 538.959 51 557.461 51C575.962 51 590.961 65.9985 590.961 84.5ZM587.961 84.5C587.961 101.345 574.306 115 557.461 115C540.616 115 526.961 101.345 526.961 84.5C526.961 67.6553 540.616 54 557.461 54C574.306 54 587.961 67.6553 587.961 84.5ZM557.461 112C572.649 112 584.961 99.6878 584.961 84.5C584.961 69.3122 572.649 57 557.461 57C542.273 57 529.961 69.3122 529.961 84.5C529.961 99.6878 542.273 112 557.461 112ZM557.461 109C570.992 109 581.961 98.031 581.961 84.5C581.961 70.969 570.992 60 557.461 60C543.93 60 532.961 70.969 532.961 84.5C532.961 98.031 543.93 109 557.461 109ZM578.961 84.5C578.961 96.3741 569.335 106 557.461 106C545.587 106 535.961 96.3741 535.961 84.5C535.961 72.6259 545.587 63 557.461 63C569.335 63 578.961 72.6259 578.961 84.5ZM557.461 103C567.678 103 575.961 94.7173 575.961 84.5C575.961 74.2827 567.678 66 557.461 66C547.244 66 538.961 74.2827 538.961 84.5C538.961 94.7173 547.244 103 557.461 103Z" fill="#6AEEDB"/>
<path fill-rule="evenodd" clip-rule="evenodd" d="M428.739 40.5C426.022 40.5 423.343 41.1325 420.913 42.3475L404.961 49.6584V79.3416L422.254 69.0308C424.268 68.0241 426.488 67.5 428.739 67.5H442.961V62.5V45.5V40.5H428.739Z" fill="#3057E1"/>
<path fill-rule="evenodd" clip-rule="evenodd" d="M428.739 40.5C426.022 40.5 423.343 41.1325 420.913 42.3475L404.961 49.6584V79.3416L422.254 69.0308C424.268 68.0241 426.488 67.5 428.739 67.5H442.961V56.5V45.5V40.5H428.739ZM420.913 45.3475C423.343 44.1325 426.022 43.5 428.739 43.5H439.962V46.5H428.739C426.488 46.5 424.268 47.0241 422.254 48.0308L407.633 55.3416L406.291 52.6584L420.913 45.3475ZM420.913 51.3475C423.343 50.1325 426.022 49.5 428.739 49.5H439.962V52.5H428.739C426.488 52.5 424.268 53.0241 422.254 54.0308L407.633 61.3416L406.291 58.6584L420.913 51.3475ZM428.739 55.5C426.022 55.5 423.343 56.1325 420.913 57.3475L406.291 64.6584L407.633 67.3416L422.254 60.0308C424.268 59.0241 426.488 58.5 428.739 58.5H439.962V55.5H428.739ZM420.913 63.3475C423.343 62.1325 426.022 61.5 428.739 61.5H439.962V64.5H428.739C426.488 64.5 424.268 65.0241 422.254 66.0308L407.633 73.3416L406.291 70.6584L420.913 63.3475Z" fill="#6AEEDB"/>
<path d="M385.961 37H412.961V130H385.961V37Z" fill="#3057E1"/>
<path fill-rule="evenodd" clip-rule="evenodd" d="M412.961 37H385.961V130H412.961V37ZM388.961 40H391.961V127H388.961V40ZM394.961 40H397.961V127H394.961V40ZM403.961 40H400.961V127H403.961V40ZM406.961 40H409.961V127H406.961V40Z" fill="#6AEEDB"/>
<path fill-rule="evenodd" clip-rule="evenodd" d="M285.961 0H258.961V130H285.961V0Z" fill="#3057E1"/>
<path fill-rule="evenodd" clip-rule="evenodd" d="M285.961 0H258.961V130H285.961V0ZM261.961 3H264.961V127H261.961V3ZM267.961 3H270.961V127H267.961V3ZM276.961 3H273.961V127H276.961V3ZM279.961 3H282.961V127H279.961V3Z" fill="#6AEEDB"/>
<path fill-rule="evenodd" clip-rule="evenodd" d="M172.961 67C172.961 50.4315 186.392 37 202.961 37H354.961V40V43V46V49V52V55V58V61V63V64H202.961C201.304 64 199.961 65.3431 199.961 67C199.961 68.6569 201.304 70 202.961 70H224.961C241.529 70 254.961 83.4315 254.961 100C254.961 116.569 241.529 130 224.961 130H158.961L155.961 130V127V124V121V118V115V112V109V106V103L158.961 103H224.961C226.618 103 227.961 101.657 227.961 100C227.961 98.3431 226.618 97 224.961 97H202.961C186.392 97 172.961 83.5685 172.961 67Z" fill="#3057E1"/>
<path fill-rule="evenodd" clip-rule="evenodd" d="M202.961 37C186.392 37 172.961 50.4315 172.961 67C172.961 83.5685 186.392 97 202.961 97H224.961C226.618 97 227.961 98.3431 227.961 100C227.961 101.657 226.618 103 224.961 103H158.961L155.961 103V106V109V112V115V118V121V124V127V130L158.961 130H224.961C241.529 130 254.961 116.569 254.961 100C254.961 83.4315 241.529 70 224.961 70H202.961C201.304 70 199.961 68.6569 199.961 67C199.961 65.3431 201.304 64 202.961 64H355.961V61H202.961C199.647 61 196.961 63.6863 196.961 67C196.961 70.3137 199.647 73 202.961 73H224.961C239.873 73 251.961 85.0883 251.961 100C251.961 114.912 239.873 127 224.961 127L158.961 127V124L224.961 124C238.216 124 248.961 113.255 248.961 100C248.961 86.7452 238.216 76 224.961 76H202.961C197.99 76 193.961 71.9706 193.961 67C193.961 62.0294 197.99 58 202.961 58H355.961V55H202.961C196.334 55 190.961 60.3726 190.961 67C190.961 73.6274 196.334 79 202.961 79H224.961C236.559 79 245.961 88.402 245.961 100C245.961 111.598 236.559 121 224.961 121L158.961 121V118L224.961 118C234.902 118 242.961 109.941 242.961 100C242.961 90.0589 234.902 82 224.961 82H202.961C194.677 82 187.961 75.2843 187.961 67C187.961 58.7157 194.677 52 202.961 52H355.961V49H202.961C193.02 49 184.961 57.0589 184.961 67C184.961 76.9411 193.02 85 202.961 85H224.961C233.245 85 239.961 91.7157 239.961 100C239.961 108.284 233.245 115 224.961 115L158.961 115V112L224.961 112C231.588 112 236.961 106.627 236.961 100C236.961 93.3726 231.588 88 224.961 88H202.961C191.363 88 181.961 78.598 181.961 67C181.961 55.402 191.363 46 202.961 46H355.961V43H202.961C189.706 43 178.961 53.7452 178.961 67C178.961 80.2548 189.706 91 202.961 91H224.961C229.931 91 233.961 95.0294 233.961 100C233.961 104.971 229.931 109 224.961 109L158.961 109V106L224.961 106C228.275 106 230.961 103.314 230.961 100C230.961 96.6863 228.275 94 224.961 94H202.961C188.049 94 175.961 81.9117 175.961 67C175.961 52.0883 188.049 40 202.961 40H355.961V37H202.961Z" fill="#6AEEDB"/>
<path d="M354.961 37H381.961V130H354.961V37Z" fill="#3057E1"/>
<path fill-rule="evenodd" clip-rule="evenodd" d="M354.961 42.4871C349.574 40.2406 343.662 39 337.461 39C312.332 39 291.961 59.371 291.961 84.5C291.961 109.629 312.332 130 337.461 130C343.662 130 349.574 128.759 354.961 126.513V90.5155C352.464 97.7797 345.572 103 337.461 103C327.244 103 318.961 94.7173 318.961 84.5C318.961 74.2827 327.244 66 337.461 66C345.572 66 352.464 71.2203 354.961 78.4845V42.4871Z" fill="#3057E1"/>
<path fill-rule="evenodd" clip-rule="evenodd" d="M381.961 37H354.961V130H381.961V37ZM357.961 40H360.961V127H357.961V40ZM363.961 40H366.961V127H363.961V40ZM372.961 40H369.961V127H372.961V40ZM375.961 40H378.961V127H375.961V40Z" fill="#6AEEDB"/>
<path fill-rule="evenodd" clip-rule="evenodd" d="M354.961 42.4871C349.574 40.2406 343.662 39 337.461 39C312.332 39 291.961 59.371 291.961 84.5C291.961 109.629 312.332 130 337.461 130C343.662 130 349.574 128.759 354.961 126.513V123.241C349.624 125.656 343.699 127 337.461 127C313.989 127 294.961 107.972 294.961 84.5C294.961 61.0279 313.989 42 337.461 42C343.699 42 349.624 43.3442 354.961 45.7587V42.4871ZM354.961 49.0783C349.686 46.4674 343.745 45 337.461 45C315.646 45 297.961 62.6848 297.961 84.5C297.961 106.315 315.646 124 337.461 124C343.745 124 349.686 122.533 354.961 119.922V116.539C349.765 119.383 343.802 121 337.461 121C317.303 121 300.961 104.658 300.961 84.5C300.961 64.3416 317.303 48 337.461 48C343.802 48 349.765 49.6169 354.961 52.4609V49.0783ZM354.961 55.9287C349.868 52.8026 343.875 51 337.461 51C318.959 51 303.961 65.9985 303.961 84.5C303.961 103.002 318.959 118 337.461 118C343.875 118 349.868 116.197 354.961 113.071V109.483C350.007 112.96 343.972 115 337.461 115C320.616 115 306.961 101.345 306.961 84.5C306.961 67.6553 320.616 54 337.461 54C343.972 54 350.007 56.0405 354.961 59.5168V55.9287ZM354.961 63.2858C350.206 59.3591 344.109 57 337.461 57C322.273 57 309.961 69.3122 309.961 84.5C309.961 99.6878 322.273 112 337.461 112C344.109 112 350.206 109.641 354.961 105.714V101.646C350.514 106.184 344.316 109 337.461 109C323.93 109 312.961 98.031 312.961 84.5C312.961 70.969 323.93 60 337.461 60C344.316 60 350.514 62.8156 354.961 67.3536V63.2858ZM354.961 72.0071C351.061 66.5541 344.676 63 337.461 63C325.587 63 315.961 72.6259 315.961 84.5C315.961 96.3741 325.587 106 337.461 106C344.676 106 351.061 102.446 354.961 96.9929V90.5155C352.464 97.7797 345.572 103 337.461 103C327.244 103 318.961 94.7173 318.961 84.5C318.961 74.2827 327.244 66 337.461 66C345.572 66 352.464 71.2203 354.961 78.4845V72.0071Z" fill="#6AEEDB"/>
<path fill-rule="evenodd" clip-rule="evenodd" d="M744.739 40.5C742.022 40.5 739.343 41.1325 736.913 42.3475L720.961 49.6584V79.3416L738.254 69.0308C740.268 68.0241 742.488 67.5 744.739 67.5H819.462V62.5V45.5V40.5H744.739Z" fill="#3057E1"/>
<path fill-rule="evenodd" clip-rule="evenodd" d="M736.913 42.3475C739.343 41.1325 742.022 40.5 744.739 40.5H819.462V45.5V56.5V67.5H744.739C742.488 67.5 740.268 68.0241 738.254 69.0308L720.961 79.3416V49.6584L736.913 42.3475ZM736.913 45.3475C739.343 44.1325 742.022 43.5 744.739 43.5H816.462V46.5H744.739C742.488 46.5 740.268 47.0241 738.254 48.0308L723.633 55.3416L722.291 52.6584L736.913 45.3475ZM736.913 51.3475C739.343 50.1325 742.022 49.5 744.739 49.5H816.462V52.5H744.739C742.488 52.5 740.268 53.0241 738.254 54.0308L723.633 61.3416L722.291 58.6584L736.913 51.3475ZM744.739 55.5C742.022 55.5 739.343 56.1325 736.913 57.3475L722.291 64.6584L723.633 67.3416L738.254 60.0308C740.268 59.0241 742.488 58.5 744.739 58.5H816.462V55.5H744.739ZM736.906 63.3475C739.336 62.1325 742.016 61.5 744.733 61.5H816.456V64.5H744.733C742.482 64.5 740.261 65.0241 738.248 66.0308L723.626 73.3416L722.285 70.6584L736.906 63.3475Z" fill="#6AEEDB"/>
<path d="M701.961 39H728.961V130H701.961V39Z" fill="#3057E1"/>
<path fill-rule="evenodd" clip-rule="evenodd" d="M728.961 39H701.961V130H728.961V39ZM705 42H708V127H705V42ZM711 42H714V127H711V42ZM720 42H717V127H720V42ZM723 42H726V127H723V42Z" fill="#6AEEDB"/>
<path fill-rule="evenodd" clip-rule="evenodd" d="M605.961 42V84.5C605.961 109.629 626.332 130 651.461 130C676.59 130 696.961 109.629 696.961 84.5V42V39H671H669.961V42V84.5C669.961 98.031 661.992 103 651.461 103C640.93 103 632.961 98.031 632.961 84.5V42V39H605.961V42Z" fill="#3057E1"/>
<path fill-rule="evenodd" clip-rule="evenodd" d="M605.961 42V84.5C605.961 109.629 626.332 130 651.461 130C676.59 130 696.961 109.629 696.961 84.5V42V39H676H675.961H672.961H671H669.961V42V84.5C669.961 98.031 661.992 103 651.461 103C640.93 103 632.961 98.031 632.961 84.5V42V39H631H629.961H626.961H626H605.961V42ZM672.961 42V84.5C672.961 98.031 661.992 106 651.461 106C640.93 106 629.961 98.031 629.961 84.5V42L626.961 42V84.5C626.961 98.031 637.93 109 651.461 109C664.992 109 675.961 98.031 675.961 84.5V42L672.961 42ZM690.961 42H693.961V84.5C693.961 107.972 674.933 127 651.461 127C627.989 127 608.961 107.972 608.961 84.5V42H611.961V84.5C611.961 106.315 629.646 124 651.461 124C673.276 124 690.961 106.315 690.961 84.5V42ZM614.961 84.5V42H617.961V84.5C617.961 103.002 632.959 118 651.461 118C669.962 118 684.961 103.002 684.961 84.5V42H687.961V84.5C687.961 104.658 671.619 121 651.461 121C631.303 121 614.961 104.658 614.961 84.5ZM620.961 84.5V42H623.961V84.5C623.961 99.6878 636.273 112 651.461 112C666.649 112 678.961 99.6878 678.961 84.5V42H681.961V84.5C681.961 101.345 668.306 115 651.461 115C634.616 115 620.961 101.345 620.961 84.5Z" fill="#6AEEDB"/>
<path fill-rule="evenodd" clip-rule="evenodd" d="M497.111 125.537C506.466 121.057 514.01 113.514 518.492 104.159L494.148 92.4957C491.165 98.7098 484.814 103 477.461 103C467.243 103 458.961 94.7174 458.961 84.5001C458.961 74.2829 467.243 66.0001 477.461 66.0001C485.008 66.0001 491.499 70.5194 494.377 76.9995L519.055 66.0591C514.851 56.5762 507.533 48.8144 498.313 44.0601C489.094 39.3058 478.527 37.8444 468.363 39.918C458.199 41.9917 449.049 47.476 442.429 55.462C435.81 63.448 432.117 73.4562 431.964 83.8281C431.811 94.2001 435.206 104.313 441.588 112.491C447.969 120.669 456.953 126.421 467.051 128.793C477.149 131.166 487.755 130.017 497.111 125.537Z" fill="#3057E1"/>
<path fill-rule="evenodd" clip-rule="evenodd" d="M518.485 104.175C518.488 104.17 518.49 104.165 518.492 104.159L494.148 92.4957C492.033 96.9016 488.225 100.34 483.567 101.969C481.655 102.637 479.6 103 477.461 103C467.244 103 458.961 94.7173 458.961 84.5C458.961 76.5179 464.016 69.7165 471.1 67.1227C471.383 67.019 471.67 66.922 471.959 66.8319C473.697 66.2913 475.545 66.0001 477.461 66.0001C485.008 66.0001 491.499 70.5194 494.377 76.9995L494.377 76.9993L519.055 66.0591C519.055 66.0587 519.054 66.0583 519.054 66.0579L519.055 66.0575C514.851 56.5755 507.533 48.8146 498.315 44.0606C497.162 43.4661 495.988 42.9231 494.796 42.432C494.498 42.3093 494.2 42.1898 493.9 42.0736C485.801 38.9354 476.939 38.1684 468.363 39.918C458.199 41.9917 449.049 47.476 442.429 55.462C435.809 63.448 432.117 73.4562 431.964 83.8281C431.811 94.2001 435.206 104.313 441.588 112.491C446.374 118.624 452.624 123.393 459.71 126.395C460.743 126.833 461.795 127.233 462.861 127.594C464.23 128.058 465.624 128.458 467.041 128.791C470.228 129.541 473.466 129.94 476.7 129.994C476.953 129.998 477.207 130 477.461 130C477.669 130 477.877 129.999 478.085 129.996C484.627 129.906 491.118 128.405 497.099 125.544C506.455 121.067 514.001 113.528 518.486 104.175L518.485 104.175ZM475.859 42.0296C476.391 42.0099 476.925 42 477.461 42C477.907 42 478.352 42.0069 478.795 42.0205C485.077 42.2183 491.279 43.8083 496.938 46.7264C504.658 50.7073 510.95 56.9454 514.999 64.5754L512.258 65.7908C505.588 53.4126 492.507 45 477.461 45C455.646 45 437.961 62.6847 437.961 84.5C437.961 106.315 455.646 124 477.461 124C492.091 124 504.863 116.046 511.69 104.227L514.395 105.523C510.122 113.03 503.649 119.08 495.815 122.831C487.076 127.016 477.17 128.089 467.738 125.873C461.223 124.342 455.205 121.306 450.142 117.058C448.124 115.362 446.265 113.483 444.593 111.445C444.376 111.181 444.163 110.915 443.953 110.645C438.779 104.015 435.706 96.0226 435.079 87.6924C435.001 86.6385 434.961 85.5739 434.961 84.5C434.961 83.4127 435.002 82.3348 435.082 81.268C435.721 72.8843 438.835 64.8647 444.045 58.2366C446.073 55.6591 448.394 53.322 450.956 51.2751C456.177 47.1108 462.339 44.2088 468.963 42.8575C471.247 42.3913 473.554 42.1164 475.859 42.0296ZM509.506 67.0108C503.31 55.6827 491.283 48 477.461 48C457.303 48 440.961 64.3416 440.961 84.5C440.961 104.658 457.303 121 477.461 121C490.898 121 502.64 113.739 508.975 102.926L506.259 101.625C500.415 111.431 489.705 118 477.461 118C458.959 118 443.961 103.002 443.961 84.5C443.961 65.9985 458.959 51 477.461 51C490.058 51 501.032 57.9534 506.752 68.2315L509.506 67.0108ZM503.997 69.453C498.753 60.2247 488.834 54 477.461 54C460.616 54 446.961 67.6553 446.961 84.5C446.961 101.345 460.616 115 477.461 115C488.512 115 498.191 109.122 503.541 100.323L500.82 99.0189C495.966 106.813 487.319 112 477.461 112C462.273 112 449.961 99.6878 449.961 84.5C449.961 69.3122 462.273 57 477.461 57C487.609 57 496.473 62.497 501.239 70.6758L503.997 69.453ZM498.477 71.9002C494.193 64.7705 486.384 60 477.461 60C463.93 60 452.961 70.969 452.961 84.5C452.961 98.031 463.93 109 477.461 109C486.126 109 493.74 104.502 498.096 97.7136L495.366 96.4058C492.356 100.924 487.681 104.238 482.218 105.472C482.082 105.503 481.944 105.532 481.807 105.561C480.403 105.849 478.95 106 477.461 106C465.586 106 455.961 96.3743 455.961 84.5001C455.961 75.5946 461.375 67.9536 469.092 64.6897C469.413 64.5537 469.739 64.4253 470.068 64.3048C472.373 63.4607 474.863 63 477.461 63C485.159 63 491.912 67.0457 495.71 73.1269L498.477 71.9002Z" fill="#6AEEDB"/>
<path d="M244.673 234.351C227.431 227.629 289.502 195.05 304.281 186.26C319.061 177.469 368.417 156.765 371.97 161.503C375.524 166.242 301.492 209.476 317.483 217.175C339.396 225.467 414.613 156.173 422.312 161.503C430.012 166.834 369.009 206.514 400.991 215.398C425.866 218.952 444.226 198.815 450.148 199.407C456.071 200 452.518 203.553 461.401 203.553C470.285 203.554 473.839 198.223 477.392 198.223C480.946 198.223 482.723 205.33 491.607 205.33C500.49 205.33 507.005 199.407 508.19 199.407C509.374 199.407 515.889 208.291 524.773 208.291C533.657 208.292 540.172 202.368 541.948 202.369C543.725 202.369 544.317 206.514 550.832 206.515C557.347 206.515 569.785 197.039 582.814 201.184" stroke="#6AEEDB" stroke-width="2"/>
<path d="M482.722 184.601C477.983 180.455 453.11 183.417 456.662 193.485C462.586 200.592 480.354 189.339 482.722 184.601ZM482.722 184.601C482.722 184.601 477.985 198.223 492.791 198.223C507.598 198.223 530.103 182.232 554.978 157.95C541.356 167.426 512.336 195.262 518.258 200.592C540.172 205.923 566.823 169.795 586.96 157.357C586.96 157.357 539.579 195.386 549.056 198.223C558.532 201.061 568.008 182.824 583.407 192.301" stroke="#FE82FF" stroke-width="2"/>
<path d="M234.567 230.797C213.838 223.098 288.462 185.786 306.23 175.718C323.999 165.649 382.039 145.513 386.185 152.027C394.477 163.28 322.813 204.738 325.775 210.068C333.475 215.991 427.051 143.735 436.527 150.25C447.188 156.173 391.515 198.816 400.992 206.515C410.468 214.214 448.373 197.039 456.664 189.932" stroke="#FE82FF" stroke-width="2"/>
</svg>
